<svg xmlns="http://www.w3.org/2000/svg" width="19.5" height="19.5" viewBox="0 0 19.5 19.5">
  <path id="Icon_awesome-user-circle" data-name="Icon awesome-user-circle" d="M9.75.563a9.75,9.75,0,1,0,9.75,9.75A9.748,9.748,0,0,0,9.75.563Zm0,3.774A3.46,3.46,0,1,1,6.29,7.8,3.46,3.46,0,0,1,9.75,4.337Zm0,13.524A7.534,7.534,0,0,1,3.99,15.18a4.383,4.383,0,0,1,3.872-2.351.962.962,0,0,1,.279.043,5.205,5.205,0,0,0,1.608.271,5.186,5.186,0,0,0,1.608-.271.962.962,0,0,1,.279-.043A4.383,4.383,0,0,1,15.51,15.18,7.534,7.534,0,0,1,9.75,17.861Z" transform="translate(0 -0.563)" fill="#fff"/>
</svg>
