<svg xmlns="http://www.w3.org/2000/svg" width="35" height="35" viewBox="0 0 35 35">
  <g id="Group_59" data-name="Group 59" transform="translate(-1003 -879)">
    <g id="Group_22" data-name="Group 22" transform="translate(0 351)">
      <g id="Group_16" data-name="Group 16" transform="translate(-14.813 356)">
        <circle id="Ellipse_2" data-name="Ellipse 2" cx="17.5" cy="17.5" r="17.5" transform="translate(1017.813 172)" fill="#fff"/>
      </g>
    </g>
    <path id="Icon_awesome-save" data-name="Icon awesome-save" d="M17.607,6.224l-3.4-3.4a1.948,1.948,0,0,0-1.377-.57H1.948A1.948,1.948,0,0,0,0,4.2V18.48a1.948,1.948,0,0,0,1.948,1.948H16.23a1.948,1.948,0,0,0,1.948-1.948V7.6a1.948,1.948,0,0,0-.57-1.377ZM9.089,17.83a2.6,2.6,0,1,1,2.6-2.6A2.6,2.6,0,0,1,9.089,17.83Zm3.9-12.356V9.553a.487.487,0,0,1-.487.487H3.084A.487.487,0,0,1,2.6,9.553V5.334a.487.487,0,0,1,.487-.487h9.272a.487.487,0,0,1,.344.143l.141.141a.487.487,0,0,1,.143.344Z" transform="translate(1012 884.75)" fill="#0879f2"/>
  </g>
</svg>
