<svg xmlns="http://www.w3.org/2000/svg" width="35" height="35" viewBox="0 0 35 35">
  <g id="Group_16" data-name="Group 16" transform="translate(-1017.813 -172)">
    <circle id="Ellipse_2" data-name="Ellipse 2" cx="17.5" cy="17.5" r="17.5" transform="translate(1017.813 172)" fill="#fff"/>
    <path id="Icon_awesome-upload" data-name="Icon awesome-upload" d="M11.348,14.724H8.281a.918.918,0,0,1-.92-.92V7.363H4a.765.765,0,0,1-.541-1.307L9.289.221a.743.743,0,0,1,1.047,0l5.835,5.835a.765.765,0,0,1-.541,1.307H12.268V13.8A.918.918,0,0,1,11.348,14.724Zm8.281-.307v4.294a.918.918,0,0,1-.92.92H.92a.918.918,0,0,1-.92-.92V14.418a.918.918,0,0,1,.92-.92H6.134V13.8a2.148,2.148,0,0,0,2.147,2.147h3.067A2.148,2.148,0,0,0,13.5,13.8V13.5h5.214A.918.918,0,0,1,19.629,14.418Zm-4.754,3.374a.767.767,0,1,0-.767.767A.769.769,0,0,0,14.875,17.791Zm2.454,0a.767.767,0,1,0-.767.767A.769.769,0,0,0,17.329,17.791Z" transform="translate(1025.407 179.402)" fill="#202f53"/>
  </g>
</svg>
